<svg width="446" height="185" viewBox="0 0 446 185" fill="none" xmlns="http://www.w3.org/2000/svg">
<g filter="url(#filter0_d_439_1413)">
<path d="M61.0975 105.278L62.0286 104.708L62.943 103.943C64.7956 102.413 66.7695 100.984 68.8604 99.8074L70.9172 98.6504L77.3326 95.7461L79.6175 94.9615L83.5062 93.4508L84.5514 93.0669L85.6855 92.5773L90.7083 90.577L91.8508 90.1846L92.8876 89.7034L96.1036 88.3486L97.1404 87.8673L98.1688 87.2888L102.291 85.0719L103.328 84.5907L104.356 84.0121L108.664 81.6812L109.693 81.1027L110.73 80.6215L117.631 77.6754L118.782 77.3804L119.827 76.9964L123.255 75.8195L124.389 75.3299L125.434 74.9459L132.792 72.7448L133.854 72.5554L135.013 72.3577L136.634 71.8262L137.67 71.345L138.699 70.7664L145.059 68.3571L146.201 67.9648L147.352 67.6698C149.64 66.9764 152.003 66.4595 154.379 66.1832L155.547 66.0827L161.343 65.0941L162.494 64.7991L167.495 63.6828L168.654 63.4851L169.805 63.1901L174.92 62.2601L176.079 62.0623L177.23 61.7673C178.859 61.47 180.53 61.2378 182.158 60.9513L183.22 60.762L184.379 60.5642L187.354 59.8183L188.496 59.426L189.541 59.0421L196.844 57.3358L198.003 57.138L206.176 56.4351L207.352 56.4319L213.968 55.8629L219.912 55.4497L222.263 55.4434L228.557 55.6862L230.926 55.8745L232.297 55.8546L233.456 55.6569L234.607 55.3619L239.374 54.9518C240.955 54.9426 242.538 55.0465 244.111 55.3285L245.304 55.52L246.399 55.7198L249.466 56.0441L250.65 56.1383L251.826 56.1352L255.54 56.0118L256.716 56.0086L257.884 55.9082C260.652 55.7207 263.445 55.9189 266.165 56.4701L267.261 56.6699L268.453 56.8614L271.033 57.2276L273.385 57.2213L281.117 58.2226L283.324 58.8169L287.016 59.5775L288.2 59.6716L289.296 59.8715L294.667 60.7817L295.86 60.9732L296.963 61.2703L302.457 62.4641L303.561 62.7612L304.656 62.961L307.642 63.4884L310.011 63.6767L316.883 64.9479L319.091 65.5421L322.783 66.3028L323.975 66.4942L325.071 66.6941L331.879 68.3628L334.104 69.1517L335.897 69.4875L338.265 69.6759L342.947 70.5474C344.435 70.9494 345.888 71.4697 347.298 72.1335L348.419 72.6252L349.442 73.1253L350.854 73.5919L353.24 73.9748L358.522 74.9907L359.715 75.1822L360.818 75.4793L367.969 77.7068L369.09 78.1985L370.113 78.6986L372.426 79.3818L373.53 79.6789L374.722 79.8704L379.048 81.1646C380.465 81.7246 381.841 82.4765 383.149 83.2622L385.213 84.457L387.598 84.8399L392.005 85.9312C393.443 86.4071 394.829 87.0155 396.178 87.7286L397.298 88.2203L398.33 88.8177L399.036 89.051L401.421 89.4339L403.223 89.8671L367.154 18.0847C364.048 11.9195 366.508 4.44526 372.672 1.33917C378.838 -1.76658 386.312 0.692525 389.418 6.85803L440.007 107.287C443.113 113.452 440.662 121.024 434.497 124.129L334.068 174.719C327.908 177.822 320.336 175.362 317.225 169.208C314.12 163.043 316.668 155.463 322.833 152.357L398.365 114.299L397.562 114.074L396.377 113.98L395.185 113.788C393.679 113.553 392.21 113.173 390.778 112.697L386.605 110.9L385.573 110.302L384.55 109.802L383.844 109.569L382.651 109.378L381.556 109.178C379.917 108.929 378.281 108.576 376.752 108.023L372.35 105.853L370.287 104.658L369.475 104.336L368.38 104.136L367.276 103.839L360.126 101.611L359.005 101.12L357.982 100.62L355.766 99.928L354.565 99.6393L349.088 98.6401L347.895 98.4486L346.8 98.2488L338.74 95.7075L336.694 94.7073L336.199 94.6519L335.015 94.5577L333.822 94.3662L326.04 92.7812L323.816 91.9923L321.114 91.3426L318.728 90.9597L312.837 89.7021L311.636 89.4133L310.532 89.1162L307.741 88.5721L305.373 88.3838L298.711 87.2905L297.51 87.0017L296.407 86.7046L292.309 85.7828L291.116 85.5914L285.639 84.5922L284.446 84.4007L283.359 84.2982L277.371 83.049L276.17 82.7602L275.066 82.4631L272.989 82.2496L271.814 82.2528L270.629 82.1586L263.507 81.399L262.314 81.2075L261.21 80.9104C260.682 80.8035 260.084 80.8212 259.539 80.8581L258.372 80.9585L257.196 80.9616L251.13 81.0913L248.778 81.0976L242.045 80.3045L239.66 79.9216L239.368 79.9467L237.049 80.3421L228.559 80.7783L226.191 80.59L222.646 80.4048L221.47 80.4079L220.303 80.5083L216.5 80.7374L214.165 80.9383C212.319 81.1265 210.465 81.2249 208.61 81.318L201.118 81.9624L200.057 82.1517L197.649 82.6529L195.364 83.4375L188.751 85.1825L186.433 85.5779C184.858 85.855 183.274 86.0896 181.699 86.3772L180.54 86.5749L179.389 86.8699C177.878 87.146 176.358 87.4397 174.858 87.7498L173.698 87.9475L172.637 88.1368L168.025 89.2196L166.963 89.409L165.812 89.704L159.53 90.7345L158.37 90.9322L157.203 91.0326C156.308 91.1386 155.438 91.2974 154.601 91.5505L153.459 91.9428L152.405 92.2294L149.464 93.3645L148.427 93.8458L147.399 94.4243L139.58 96.9592L137.261 97.3547L135.057 97.9363L134.02 98.4176L132.886 98.9072L127.085 100.974L125.934 101.269L124.791 101.662L122.612 102.535L120.555 103.692L116.15 106.032L114.093 107.189L109.493 109.545L108.464 110.123L107.428 110.605L101.668 113.158L100.526 113.551L99.4889 114.032L95.3166 115.665L94.2715 116.049L93.2347 116.53L87.92 118.556L86.7775 118.948L85.7323 119.332L83.189 120.531L82.1522 121.012L81.1238 121.591C80.363 122.018 79.6325 122.556 78.9058 123.154L77.0771 124.683C75.7308 125.795 74.243 126.724 72.7133 127.509L67.8767 129.395L66.7259 129.69L65.5751 129.985L65.6723 129.977L64.7496 130.644L63.7379 131.417L58.9379 134.869L58.0151 135.536L56.9867 136.115L49.9405 139.661L48.798 140.054L47.7529 140.438C47.0803 140.68 46.431 141.02 45.8739 141.383L44.9428 141.954L43.9227 142.629L40.8793 144.851L39.9649 145.616L39.0421 146.284C37.8076 147.261 36.5143 148.137 35.1482 148.873L30.8953 150.709L29.8502 151.093L28.9912 151.363L28.5466 151.891L27.6406 152.753C26.3126 154.077 24.7557 155.239 23.1408 156.277L18.1849 159.056L16.1197 160.115L11.3993 150.818L10.4536 148.939L4.41497 137.99L4.51227 137.982L4.69013 137.77L4.97365 137.648L7.04723 136.686L9.67112 135.284C9.79161 135.206 9.87208 135.116 9.94627 135.064L10.8523 134.202L11.661 133.348L15.8856 130.044C17.3888 129.116 18.9924 128.342 20.6888 127.769L22.9737 126.984L23.5323 126.642L24.4551 125.975L25.3695 125.21L30.2584 121.653L31.2868 121.074L32.2096 120.407L39.2642 116.958L40.4066 116.565L41.4518 116.181L43.3308 115.236L44.2536 114.568L45.282 113.99L48.4143 111.662L49.4344 110.986L50.3488 110.221L54.5346 107.607C56.0213 106.872 57.5676 106.264 59.185 105.835L60.3359 105.54L61.0975 105.278Z" fill="#72E3AD"/>
</g>
<defs>
<filter id="filter0_d_439_1413" x="0.415039" y="-0.00390625" width="444.938" height="184.064" filterUnits="userSpaceOnUse" color-interpolation-filters="sRGB">
<feFlood flood-opacity="0" result="BackgroundImageFix"/>
<feColorMatrix in="SourceAlpha" type="matrix" values="0 0 0 0 0 0 0 0 0 0 0 0 0 0 0 0 0 0 127 0" result="hardAlpha"/>
<feOffset dy="4"/>
<feGaussianBlur stdDeviation="2"/>
<feComposite in2="hardAlpha" operator="out"/>
<feColorMatrix type="matrix" values="0 0 0 0 0 0 0 0 0 0 0 0 0 0 0 0 0 0 0.25 0"/>
<feBlend mode="normal" in2="BackgroundImageFix" result="effect1_dropShadow_439_1413"/>
<feBlend mode="normal" in="SourceGraphic" in2="effect1_dropShadow_439_1413" result="shape"/>
</filter>
</defs>
</svg>
